<mxfile host="app.diagrams.net" agent="Mozilla/5.0 (Windows NT 10.0; Win64; x64) AppleWebKit/537.36 (KHTML, like Gecko) Chrome/136.0.0.0 Safari/537.36" version="26.2.14">
  <diagram name="Strona-1" id="3gikFZh17QTlchzR9tAJ">
    <mxGraphModel dx="1554" dy="856" grid="1" gridSize="10" guides="1" tooltips="1" connect="1" arrows="1" fold="1" page="1" pageScale="1" pageWidth="827" pageHeight="1169" math="0" shadow="0">
      <root>
        <mxCell id="0" />
        <mxCell id="1" parent="0" />
        <mxCell id="Yvp6jD7t4m_mrtLre_dv-1" value="klienci" style="rounded=0;whiteSpace=wrap;html=1;" parent="1" vertex="1">
          <mxGeometry x="290" y="390" width="120" height="60" as="geometry" />
        </mxCell>
        <mxCell id="Yvp6jD7t4m_mrtLre_dv-2" value="&lt;u&gt;id&lt;/u&gt;" style="ellipse;whiteSpace=wrap;html=1;" parent="1" vertex="1">
          <mxGeometry x="40" y="230" width="120" height="80" as="geometry" />
        </mxCell>
        <mxCell id="Yvp6jD7t4m_mrtLre_dv-3" value="imie" style="ellipse;whiteSpace=wrap;html=1;" parent="1" vertex="1">
          <mxGeometry x="160" y="210" width="120" height="80" as="geometry" />
        </mxCell>
        <mxCell id="Yvp6jD7t4m_mrtLre_dv-4" value="nazwisko" style="ellipse;whiteSpace=wrap;html=1;" parent="1" vertex="1">
          <mxGeometry x="280" y="200" width="120" height="80" as="geometry" />
        </mxCell>
        <mxCell id="Yvp6jD7t4m_mrtLre_dv-5" value="telefon" style="ellipse;whiteSpace=wrap;html=1;" parent="1" vertex="1">
          <mxGeometry x="410" y="200" width="120" height="80" as="geometry" />
        </mxCell>
        <mxCell id="Yvp6jD7t4m_mrtLre_dv-6" value="" style="endArrow=none;html=1;rounded=0;" parent="1" source="Yvp6jD7t4m_mrtLre_dv-1" target="Yvp6jD7t4m_mrtLre_dv-5" edge="1">
          <mxGeometry width="50" height="50" relative="1" as="geometry">
            <mxPoint x="1020" y="830" as="sourcePoint" />
            <mxPoint x="1070" y="780" as="targetPoint" />
          </mxGeometry>
        </mxCell>
        <mxCell id="Yvp6jD7t4m_mrtLre_dv-7" value="" style="endArrow=none;html=1;rounded=0;" parent="1" source="Yvp6jD7t4m_mrtLre_dv-2" target="Yvp6jD7t4m_mrtLre_dv-1" edge="1">
          <mxGeometry width="50" height="50" relative="1" as="geometry">
            <mxPoint x="660" y="550" as="sourcePoint" />
            <mxPoint x="710" y="500" as="targetPoint" />
          </mxGeometry>
        </mxCell>
        <mxCell id="Yvp6jD7t4m_mrtLre_dv-8" value="" style="endArrow=none;html=1;rounded=0;" parent="1" source="Yvp6jD7t4m_mrtLre_dv-3" target="Yvp6jD7t4m_mrtLre_dv-1" edge="1">
          <mxGeometry width="50" height="50" relative="1" as="geometry">
            <mxPoint x="800" y="660" as="sourcePoint" />
            <mxPoint x="850" y="610" as="targetPoint" />
          </mxGeometry>
        </mxCell>
        <mxCell id="Yvp6jD7t4m_mrtLre_dv-9" value="" style="endArrow=none;html=1;rounded=0;" parent="1" source="Yvp6jD7t4m_mrtLre_dv-1" target="Yvp6jD7t4m_mrtLre_dv-4" edge="1">
          <mxGeometry width="50" height="50" relative="1" as="geometry">
            <mxPoint x="900" y="650" as="sourcePoint" />
            <mxPoint x="950" y="600" as="targetPoint" />
          </mxGeometry>
        </mxCell>
        <mxCell id="Yvp6jD7t4m_mrtLre_dv-10" value="zgłoszenia" style="rounded=0;whiteSpace=wrap;html=1;" parent="1" vertex="1">
          <mxGeometry x="1380" y="300" width="120" height="60" as="geometry" />
        </mxCell>
        <mxCell id="Yvp6jD7t4m_mrtLre_dv-11" value="&lt;u&gt;id&lt;/u&gt;" style="ellipse;whiteSpace=wrap;html=1;" parent="1" vertex="1">
          <mxGeometry x="1140" y="180" width="120" height="80" as="geometry" />
        </mxCell>
        <mxCell id="Yvp6jD7t4m_mrtLre_dv-12" value="id_sprzetu" style="ellipse;whiteSpace=wrap;html=1;" parent="1" vertex="1">
          <mxGeometry x="1210" y="90" width="130" height="90" as="geometry" />
        </mxCell>
        <mxCell id="Yvp6jD7t4m_mrtLre_dv-13" value="" style="endArrow=none;html=1;rounded=0;" parent="1" source="Yvp6jD7t4m_mrtLre_dv-10" target="Yvp6jD7t4m_mrtLre_dv-11" edge="1">
          <mxGeometry width="50" height="50" relative="1" as="geometry">
            <mxPoint x="1020" y="830" as="sourcePoint" />
            <mxPoint x="1070" y="780" as="targetPoint" />
          </mxGeometry>
        </mxCell>
        <mxCell id="Yvp6jD7t4m_mrtLre_dv-14" value="" style="endArrow=none;html=1;rounded=0;" parent="1" source="Yvp6jD7t4m_mrtLre_dv-12" target="Yvp6jD7t4m_mrtLre_dv-10" edge="1">
          <mxGeometry width="50" height="50" relative="1" as="geometry">
            <mxPoint x="870" y="800" as="sourcePoint" />
            <mxPoint x="920" y="750" as="targetPoint" />
          </mxGeometry>
        </mxCell>
        <mxCell id="Yvp6jD7t4m_mrtLre_dv-15" value="status" style="ellipse;whiteSpace=wrap;html=1;" parent="1" vertex="1">
          <mxGeometry x="1625" y="100" width="120" height="80" as="geometry" />
        </mxCell>
        <mxCell id="Yvp6jD7t4m_mrtLre_dv-16" value="" style="endArrow=none;html=1;rounded=0;" parent="1" source="Yvp6jD7t4m_mrtLre_dv-10" target="Yvp6jD7t4m_mrtLre_dv-15" edge="1">
          <mxGeometry width="50" height="50" relative="1" as="geometry">
            <mxPoint x="1240" y="650" as="sourcePoint" />
            <mxPoint x="1290" y="600" as="targetPoint" />
          </mxGeometry>
        </mxCell>
        <mxCell id="Yvp6jD7t4m_mrtLre_dv-17" value="pracownicy" style="rounded=0;whiteSpace=wrap;html=1;" parent="1" vertex="1">
          <mxGeometry x="910" y="520" width="120" height="60" as="geometry" />
        </mxCell>
        <mxCell id="Yvp6jD7t4m_mrtLre_dv-18" value="&lt;u&gt;id&lt;/u&gt;" style="ellipse;whiteSpace=wrap;html=1;" parent="1" vertex="1">
          <mxGeometry x="880" y="650" width="120" height="80" as="geometry" />
        </mxCell>
        <mxCell id="Yvp6jD7t4m_mrtLre_dv-19" value="imie" style="ellipse;whiteSpace=wrap;html=1;" parent="1" vertex="1">
          <mxGeometry x="1010" y="650" width="120" height="80" as="geometry" />
        </mxCell>
        <mxCell id="Yvp6jD7t4m_mrtLre_dv-20" value="nazwisko" style="ellipse;whiteSpace=wrap;html=1;" parent="1" vertex="1">
          <mxGeometry x="1121" y="620" width="120" height="80" as="geometry" />
        </mxCell>
        <mxCell id="Yvp6jD7t4m_mrtLre_dv-21" value="" style="endArrow=none;html=1;rounded=0;" parent="1" source="Yvp6jD7t4m_mrtLre_dv-18" target="Yvp6jD7t4m_mrtLre_dv-17" edge="1">
          <mxGeometry width="50" height="50" relative="1" as="geometry">
            <mxPoint x="730" y="840" as="sourcePoint" />
            <mxPoint x="780" y="790" as="targetPoint" />
          </mxGeometry>
        </mxCell>
        <mxCell id="Yvp6jD7t4m_mrtLre_dv-22" value="" style="endArrow=none;html=1;rounded=0;" parent="1" source="Yvp6jD7t4m_mrtLre_dv-19" target="Yvp6jD7t4m_mrtLre_dv-17" edge="1">
          <mxGeometry width="50" height="50" relative="1" as="geometry">
            <mxPoint x="730" y="820" as="sourcePoint" />
            <mxPoint x="780" y="770" as="targetPoint" />
          </mxGeometry>
        </mxCell>
        <mxCell id="Yvp6jD7t4m_mrtLre_dv-23" value="" style="endArrow=none;html=1;rounded=0;" parent="1" source="Yvp6jD7t4m_mrtLre_dv-17" target="Yvp6jD7t4m_mrtLre_dv-20" edge="1">
          <mxGeometry width="50" height="50" relative="1" as="geometry">
            <mxPoint x="1040" y="790" as="sourcePoint" />
            <mxPoint x="1090" y="740" as="targetPoint" />
          </mxGeometry>
        </mxCell>
        <mxCell id="Yvp6jD7t4m_mrtLre_dv-24" value="data_przyjecia" style="ellipse;whiteSpace=wrap;html=1;" parent="1" vertex="1">
          <mxGeometry x="1360" y="60" width="120" height="80" as="geometry" />
        </mxCell>
        <mxCell id="Yvp6jD7t4m_mrtLre_dv-25" value="data_zakonczenia" style="ellipse;whiteSpace=wrap;html=1;" parent="1" vertex="1">
          <mxGeometry x="1505" y="60" width="120" height="80" as="geometry" />
        </mxCell>
        <mxCell id="Yvp6jD7t4m_mrtLre_dv-26" value="" style="endArrow=none;html=1;rounded=0;" parent="1" source="Yvp6jD7t4m_mrtLre_dv-10" target="Yvp6jD7t4m_mrtLre_dv-24" edge="1">
          <mxGeometry width="50" height="50" relative="1" as="geometry">
            <mxPoint x="1260" y="640" as="sourcePoint" />
            <mxPoint x="1310" y="590" as="targetPoint" />
          </mxGeometry>
        </mxCell>
        <mxCell id="Yvp6jD7t4m_mrtLre_dv-27" value="" style="endArrow=none;html=1;rounded=0;" parent="1" source="Yvp6jD7t4m_mrtLre_dv-25" target="Yvp6jD7t4m_mrtLre_dv-10" edge="1">
          <mxGeometry width="50" height="50" relative="1" as="geometry">
            <mxPoint x="1220" y="650" as="sourcePoint" />
            <mxPoint x="1270" y="600" as="targetPoint" />
          </mxGeometry>
        </mxCell>
        <mxCell id="Yvp6jD7t4m_mrtLre_dv-30" value="sprzęty" style="rounded=0;whiteSpace=wrap;html=1;" parent="1" vertex="1">
          <mxGeometry x="660" y="370" width="120" height="60" as="geometry" />
        </mxCell>
        <mxCell id="Yvp6jD7t4m_mrtLre_dv-31" value="id_klienta" style="ellipse;whiteSpace=wrap;html=1;" parent="1" vertex="1">
          <mxGeometry x="690" y="180" width="120" height="80" as="geometry" />
        </mxCell>
        <mxCell id="Yvp6jD7t4m_mrtLre_dv-32" value="" style="endArrow=none;html=1;rounded=0;" parent="1" source="Yvp6jD7t4m_mrtLre_dv-31" target="Yvp6jD7t4m_mrtLre_dv-30" edge="1">
          <mxGeometry width="50" height="50" relative="1" as="geometry">
            <mxPoint x="1450" y="770" as="sourcePoint" />
            <mxPoint x="1500" y="720" as="targetPoint" />
          </mxGeometry>
        </mxCell>
        <mxCell id="Yvp6jD7t4m_mrtLre_dv-33" value="" style="endArrow=none;html=1;rounded=0;" parent="1" source="Yvp6jD7t4m_mrtLre_dv-34" target="Yvp6jD7t4m_mrtLre_dv-30" edge="1">
          <mxGeometry width="50" height="50" relative="1" as="geometry">
            <mxPoint x="1300" y="950" as="sourcePoint" />
            <mxPoint x="1350" y="900" as="targetPoint" />
          </mxGeometry>
        </mxCell>
        <mxCell id="Yvp6jD7t4m_mrtLre_dv-34" value="opis" style="ellipse;whiteSpace=wrap;html=1;" parent="1" vertex="1">
          <mxGeometry x="820" y="190" width="120" height="80" as="geometry" />
        </mxCell>
        <mxCell id="Yvp6jD7t4m_mrtLre_dv-35" value="&lt;u&gt;id&lt;/u&gt;" style="ellipse;whiteSpace=wrap;html=1;" parent="1" vertex="1">
          <mxGeometry x="560" y="180" width="120" height="80" as="geometry" />
        </mxCell>
        <mxCell id="Yvp6jD7t4m_mrtLre_dv-36" value="" style="endArrow=none;html=1;rounded=0;" parent="1" source="Yvp6jD7t4m_mrtLre_dv-30" target="Yvp6jD7t4m_mrtLre_dv-35" edge="1">
          <mxGeometry width="50" height="50" relative="1" as="geometry">
            <mxPoint x="1590" y="820" as="sourcePoint" />
            <mxPoint x="1640" y="770" as="targetPoint" />
          </mxGeometry>
        </mxCell>
        <mxCell id="Yvp6jD7t4m_mrtLre_dv-38" value="usterka" style="ellipse;whiteSpace=wrap;html=1;" parent="1" vertex="1">
          <mxGeometry x="1690" y="190" width="120" height="80" as="geometry" />
        </mxCell>
        <mxCell id="Yvp6jD7t4m_mrtLre_dv-39" value="" style="endArrow=none;html=1;rounded=0;" parent="1" source="Yvp6jD7t4m_mrtLre_dv-10" target="Yvp6jD7t4m_mrtLre_dv-38" edge="1">
          <mxGeometry width="50" height="50" relative="1" as="geometry">
            <mxPoint x="2006.100364443112" y="310" as="sourcePoint" />
            <mxPoint x="2190" y="270" as="targetPoint" />
          </mxGeometry>
        </mxCell>
        <mxCell id="Yvp6jD7t4m_mrtLre_dv-40" value="działania" style="rounded=0;whiteSpace=wrap;html=1;" parent="1" vertex="1">
          <mxGeometry x="1480" y="510" width="120" height="60" as="geometry" />
        </mxCell>
        <mxCell id="Yvp6jD7t4m_mrtLre_dv-41" value="id_zgloszenia" style="ellipse;whiteSpace=wrap;html=1;" parent="1" vertex="1">
          <mxGeometry x="1660" y="430" width="120" height="80" as="geometry" />
        </mxCell>
        <mxCell id="Yvp6jD7t4m_mrtLre_dv-42" value="id_pracownika" style="ellipse;whiteSpace=wrap;html=1;" parent="1" vertex="1">
          <mxGeometry x="1660" y="520" width="120" height="80" as="geometry" />
        </mxCell>
        <mxCell id="Yvp6jD7t4m_mrtLre_dv-43" value="data" style="ellipse;whiteSpace=wrap;html=1;" parent="1" vertex="1">
          <mxGeometry x="1590" y="610" width="120" height="80" as="geometry" />
        </mxCell>
        <mxCell id="Yvp6jD7t4m_mrtLre_dv-44" value="opis" style="ellipse;whiteSpace=wrap;html=1;" parent="1" vertex="1">
          <mxGeometry x="1450" y="630" width="120" height="80" as="geometry" />
        </mxCell>
        <mxCell id="Yvp6jD7t4m_mrtLre_dv-45" value="" style="endArrow=none;html=1;rounded=0;" parent="1" source="Yvp6jD7t4m_mrtLre_dv-44" target="Yvp6jD7t4m_mrtLre_dv-40" edge="1">
          <mxGeometry width="50" height="50" relative="1" as="geometry">
            <mxPoint x="1320" y="540" as="sourcePoint" />
            <mxPoint x="1370" y="490" as="targetPoint" />
          </mxGeometry>
        </mxCell>
        <mxCell id="Yvp6jD7t4m_mrtLre_dv-46" value="" style="endArrow=none;html=1;rounded=0;" parent="1" source="Yvp6jD7t4m_mrtLre_dv-43" target="Yvp6jD7t4m_mrtLre_dv-40" edge="1">
          <mxGeometry width="50" height="50" relative="1" as="geometry">
            <mxPoint x="1400" y="690" as="sourcePoint" />
            <mxPoint x="1450" y="640" as="targetPoint" />
          </mxGeometry>
        </mxCell>
        <mxCell id="Yvp6jD7t4m_mrtLre_dv-47" value="" style="endArrow=none;html=1;rounded=0;" parent="1" source="Yvp6jD7t4m_mrtLre_dv-40" target="Yvp6jD7t4m_mrtLre_dv-41" edge="1">
          <mxGeometry width="50" height="50" relative="1" as="geometry">
            <mxPoint x="1460" y="440" as="sourcePoint" />
            <mxPoint x="1510" y="390" as="targetPoint" />
          </mxGeometry>
        </mxCell>
        <mxCell id="Yvp6jD7t4m_mrtLre_dv-48" value="" style="endArrow=none;html=1;rounded=0;" parent="1" source="Yvp6jD7t4m_mrtLre_dv-40" target="Yvp6jD7t4m_mrtLre_dv-42" edge="1">
          <mxGeometry width="50" height="50" relative="1" as="geometry">
            <mxPoint x="1710" y="670" as="sourcePoint" />
            <mxPoint x="1760" y="620" as="targetPoint" />
          </mxGeometry>
        </mxCell>
        <mxCell id="Yvp6jD7t4m_mrtLre_dv-50" value="&lt;u&gt;id&lt;/u&gt;" style="ellipse;whiteSpace=wrap;html=1;" parent="1" vertex="1">
          <mxGeometry x="1360" y="430" width="120" height="80" as="geometry" />
        </mxCell>
        <mxCell id="Yvp6jD7t4m_mrtLre_dv-51" value="" style="endArrow=none;html=1;rounded=0;" parent="1" source="Yvp6jD7t4m_mrtLre_dv-50" target="Yvp6jD7t4m_mrtLre_dv-40" edge="1">
          <mxGeometry width="50" height="50" relative="1" as="geometry">
            <mxPoint x="1440" y="780" as="sourcePoint" />
            <mxPoint x="1490" y="730" as="targetPoint" />
          </mxGeometry>
        </mxCell>
        <mxCell id="Yvp6jD7t4m_mrtLre_dv-54" value="zespoły" style="rounded=0;whiteSpace=wrap;html=1;" parent="1" vertex="1">
          <mxGeometry x="490" y="550" width="120" height="60" as="geometry" />
        </mxCell>
        <mxCell id="Yvp6jD7t4m_mrtLre_dv-55" value="&lt;u&gt;id&lt;/u&gt;" style="ellipse;whiteSpace=wrap;html=1;" parent="1" vertex="1">
          <mxGeometry x="340" y="610" width="120" height="80" as="geometry" />
        </mxCell>
        <mxCell id="Yvp6jD7t4m_mrtLre_dv-56" value="" style="endArrow=none;html=1;rounded=0;" parent="1" source="Yvp6jD7t4m_mrtLre_dv-55" target="Yvp6jD7t4m_mrtLre_dv-54" edge="1">
          <mxGeometry width="50" height="50" relative="1" as="geometry">
            <mxPoint x="370" y="650" as="sourcePoint" />
            <mxPoint x="420" y="600" as="targetPoint" />
          </mxGeometry>
        </mxCell>
        <mxCell id="Yvp6jD7t4m_mrtLre_dv-57" value="specjalizacja" style="ellipse;whiteSpace=wrap;html=1;" parent="1" vertex="1">
          <mxGeometry x="470" y="660" width="120" height="80" as="geometry" />
        </mxCell>
        <mxCell id="Yvp6jD7t4m_mrtLre_dv-58" value="" style="endArrow=none;html=1;rounded=0;" parent="1" source="Yvp6jD7t4m_mrtLre_dv-57" target="Yvp6jD7t4m_mrtLre_dv-54" edge="1">
          <mxGeometry width="50" height="50" relative="1" as="geometry">
            <mxPoint x="680" y="580" as="sourcePoint" />
            <mxPoint x="730" y="530" as="targetPoint" />
          </mxGeometry>
        </mxCell>
        <mxCell id="Yvp6jD7t4m_mrtLre_dv-60" value="id_zespolu" style="ellipse;whiteSpace=wrap;html=1;" parent="1" vertex="1">
          <mxGeometry x="760" y="650" width="120" height="80" as="geometry" />
        </mxCell>
        <mxCell id="Yvp6jD7t4m_mrtLre_dv-61" value="" style="endArrow=none;html=1;rounded=0;" parent="1" source="Yvp6jD7t4m_mrtLre_dv-60" target="Yvp6jD7t4m_mrtLre_dv-17" edge="1">
          <mxGeometry width="50" height="50" relative="1" as="geometry">
            <mxPoint x="830" y="620" as="sourcePoint" />
            <mxPoint x="880" y="570" as="targetPoint" />
          </mxGeometry>
        </mxCell>
        <mxCell id="t0saiEG1jBcrnA9zouVA-16" value="&lt;font style=&quot;font-size: 18px;&quot;&gt;klienci&lt;/font&gt;" style="swimlane;childLayout=stackLayout;horizontal=1;startSize=50;horizontalStack=0;rounded=1;fontSize=14;fontStyle=0;strokeWidth=2;resizeParent=0;resizeLast=1;shadow=0;dashed=0;align=center;arcSize=4;whiteSpace=wrap;html=1;" parent="1" vertex="1">
          <mxGeometry x="200" y="1020" width="176" height="160" as="geometry" />
        </mxCell>
        <mxCell id="t0saiEG1jBcrnA9zouVA-17" value="&lt;div style=&quot;line-height: 210%;&quot;&gt;&lt;font style=&quot;font-size: 14px;&quot;&gt;PK id SERIAL&lt;/font&gt;&lt;div&gt;&lt;font style=&quot;font-size: 14px;&quot;&gt;imie VARCHAR(20)&lt;/font&gt;&lt;/div&gt;&lt;div&gt;&lt;font style=&quot;font-size: 14px;&quot;&gt;nazwisko VARCHAR(30)&lt;/font&gt;&lt;/div&gt;&lt;div&gt;&lt;font style=&quot;font-size: 14px;&quot;&gt;telefon CHAR(9)&lt;/font&gt;&lt;/div&gt;&lt;/div&gt;" style="align=left;strokeColor=none;fillColor=none;spacingLeft=4;spacingRight=4;fontSize=12;verticalAlign=top;resizable=0;rotatable=0;part=1;html=1;whiteSpace=wrap;" parent="t0saiEG1jBcrnA9zouVA-16" vertex="1">
          <mxGeometry y="50" width="176" height="110" as="geometry" />
        </mxCell>
        <mxCell id="t0saiEG1jBcrnA9zouVA-18" value="&lt;font style=&quot;font-size: 18px;&quot;&gt;sprzęty&lt;/font&gt;" style="swimlane;childLayout=stackLayout;horizontal=1;startSize=50;horizontalStack=0;rounded=1;fontSize=14;fontStyle=0;strokeWidth=2;resizeParent=0;resizeLast=1;shadow=0;dashed=0;align=center;arcSize=4;whiteSpace=wrap;html=1;" parent="1" vertex="1">
          <mxGeometry x="570" y="1015" width="190" height="170" as="geometry" />
        </mxCell>
        <mxCell id="t0saiEG1jBcrnA9zouVA-19" value="&lt;div style=&quot;line-height: 210%;&quot;&gt;&lt;font style=&quot;font-size: 14px;&quot;&gt;PK id SERIAL&lt;/font&gt;&lt;div&gt;&lt;font style=&quot;font-size: 14px;&quot;&gt;FK id_klienta INTEGER&lt;/font&gt;&lt;/div&gt;&lt;div&gt;&lt;span style=&quot;font-size: 14px;&quot;&gt;opis TEXT&lt;/span&gt;&lt;/div&gt;&lt;div&gt;&lt;span style=&quot;font-size: 14px;&quot;&gt;odbior CHAR(3)&lt;/span&gt;&lt;/div&gt;&lt;/div&gt;" style="align=left;strokeColor=none;fillColor=none;spacingLeft=4;spacingRight=4;fontSize=12;verticalAlign=top;resizable=0;rotatable=0;part=1;html=1;whiteSpace=wrap;" parent="t0saiEG1jBcrnA9zouVA-18" vertex="1">
          <mxGeometry y="50" width="190" height="120" as="geometry" />
        </mxCell>
        <mxCell id="t0saiEG1jBcrnA9zouVA-22" value="&lt;font style=&quot;font-size: 18px;&quot;&gt;zgłoszenia&lt;/font&gt;" style="swimlane;childLayout=stackLayout;horizontal=1;startSize=50;horizontalStack=0;rounded=1;fontSize=14;fontStyle=0;strokeWidth=2;resizeParent=0;resizeLast=1;shadow=0;dashed=0;align=center;arcSize=4;whiteSpace=wrap;html=1;" parent="1" vertex="1">
          <mxGeometry x="940" y="980" width="199" height="240" as="geometry" />
        </mxCell>
        <mxCell id="t0saiEG1jBcrnA9zouVA-23" value="&lt;div style=&quot;line-height: 210%;&quot;&gt;&lt;font style=&quot;font-size: 14px;&quot;&gt;PK id SERIAL&lt;/font&gt;&lt;div&gt;&lt;font style=&quot;font-size: 14px;&quot;&gt;FK id_sprzetu INTEGER&lt;/font&gt;&lt;/div&gt;&lt;div&gt;&lt;span style=&quot;background-color: transparent; color: light-dark(rgb(0, 0, 0), rgb(255, 255, 255));&quot;&gt;&lt;font style=&quot;font-size: 14px;&quot;&gt;status VARCHAR(30)&lt;/font&gt;&lt;/span&gt;&lt;/div&gt;&lt;div&gt;&lt;font style=&quot;font-size: 14px;&quot;&gt;data_przyjecia DATE&lt;/font&gt;&lt;/div&gt;&lt;div&gt;&lt;font style=&quot;font-size: 14px;&quot;&gt;data_zakonczenia DATE&lt;/font&gt;&lt;/div&gt;&lt;div&gt;&lt;font style=&quot;font-size: 14px;&quot;&gt;usterka VARCHAR(45)&lt;/font&gt;&lt;/div&gt;&lt;div&gt;&lt;/div&gt;&lt;/div&gt;" style="align=left;strokeColor=none;fillColor=none;spacingLeft=4;spacingRight=4;fontSize=12;verticalAlign=top;resizable=0;rotatable=0;part=1;html=1;whiteSpace=wrap;" parent="t0saiEG1jBcrnA9zouVA-22" vertex="1">
          <mxGeometry y="50" width="199" height="190" as="geometry" />
        </mxCell>
        <mxCell id="t0saiEG1jBcrnA9zouVA-26" value="&lt;font style=&quot;font-size: 18px;&quot;&gt;dzialania&lt;/font&gt;" style="swimlane;childLayout=stackLayout;horizontal=1;startSize=50;horizontalStack=0;rounded=1;fontSize=14;fontStyle=0;strokeWidth=2;resizeParent=0;resizeLast=1;shadow=0;dashed=0;align=center;arcSize=4;whiteSpace=wrap;html=1;" parent="1" vertex="1">
          <mxGeometry x="1345.5" y="979" width="189" height="190" as="geometry" />
        </mxCell>
        <mxCell id="t0saiEG1jBcrnA9zouVA-27" value="&lt;div style=&quot;line-height: 210%;&quot;&gt;&lt;font style=&quot;font-size: 14px;&quot;&gt;PK id SERIAL&lt;/font&gt;&lt;div&gt;&lt;font style=&quot;font-size: 14px;&quot;&gt;FK id_zgloszenia INTEGER&lt;/font&gt;&lt;/div&gt;&lt;div&gt;&lt;font style=&quot;font-size: 14px;&quot;&gt;FK id_pracownika INTEGER&lt;/font&gt;&lt;/div&gt;&lt;div&gt;&lt;font style=&quot;font-size: 14px;&quot;&gt;data DATE&lt;/font&gt;&lt;/div&gt;&lt;div&gt;&lt;font style=&quot;font-size: 14px;&quot;&gt;opis VARCHAR(100)&lt;/font&gt;&lt;/div&gt;&lt;/div&gt;" style="align=left;strokeColor=none;fillColor=none;spacingLeft=4;spacingRight=4;fontSize=12;verticalAlign=top;resizable=0;rotatable=0;part=1;html=1;whiteSpace=wrap;" parent="t0saiEG1jBcrnA9zouVA-26" vertex="1">
          <mxGeometry y="50" width="189" height="140" as="geometry" />
        </mxCell>
        <mxCell id="t0saiEG1jBcrnA9zouVA-30" value="&lt;font style=&quot;font-size: 18px;&quot;&gt;pracownicy&lt;/font&gt;" style="swimlane;childLayout=stackLayout;horizontal=1;startSize=50;horizontalStack=0;rounded=1;fontSize=14;fontStyle=0;strokeWidth=2;resizeParent=0;resizeLast=1;shadow=0;dashed=0;align=center;arcSize=4;whiteSpace=wrap;html=1;" parent="1" vertex="1">
          <mxGeometry x="1690" y="999" width="210" height="170" as="geometry" />
        </mxCell>
        <mxCell id="t0saiEG1jBcrnA9zouVA-31" value="&lt;div style=&quot;line-height: 210%;&quot;&gt;&lt;font style=&quot;font-size: 14px;&quot;&gt;PK id SERIAL&lt;/font&gt;&lt;div&gt;&lt;font style=&quot;font-size: 14px;&quot;&gt;FK id_zespolu INTEGER&lt;/font&gt;&lt;/div&gt;&lt;div&gt;&lt;font style=&quot;font-size: 14px;&quot;&gt;imie VARCHAR(20)&lt;/font&gt;&lt;/div&gt;&lt;div&gt;&lt;font style=&quot;font-size: 14px;&quot;&gt;nazwisko VARCHAR(20)&lt;/font&gt;&lt;/div&gt;&lt;/div&gt;" style="align=left;strokeColor=none;fillColor=none;spacingLeft=4;spacingRight=4;fontSize=12;verticalAlign=top;resizable=0;rotatable=0;part=1;html=1;whiteSpace=wrap;" parent="t0saiEG1jBcrnA9zouVA-30" vertex="1">
          <mxGeometry y="50" width="210" height="120" as="geometry" />
        </mxCell>
        <mxCell id="t0saiEG1jBcrnA9zouVA-39" value="&lt;font style=&quot;font-size: 18px;&quot;&gt;zespoły&lt;/font&gt;" style="swimlane;childLayout=stackLayout;horizontal=1;startSize=50;horizontalStack=0;rounded=1;fontSize=14;fontStyle=0;strokeWidth=2;resizeParent=0;resizeLast=1;shadow=0;dashed=0;align=center;arcSize=4;whiteSpace=wrap;html=1;" parent="1" vertex="1">
          <mxGeometry x="2050" y="1014" width="200" height="120" as="geometry" />
        </mxCell>
        <mxCell id="t0saiEG1jBcrnA9zouVA-40" value="&lt;div style=&quot;line-height: 210%;&quot;&gt;&lt;font style=&quot;font-size: 14px;&quot;&gt;PK id SERIAL&lt;/font&gt;&lt;div&gt;&lt;font style=&quot;font-size: 14px;&quot;&gt;specjalizacja VARCHAR(30)&lt;/font&gt;&lt;/div&gt;&lt;/div&gt;" style="align=left;strokeColor=none;fillColor=none;spacingLeft=4;spacingRight=4;fontSize=12;verticalAlign=top;resizable=0;rotatable=0;part=1;html=1;whiteSpace=wrap;" parent="t0saiEG1jBcrnA9zouVA-39" vertex="1">
          <mxGeometry y="50" width="200" height="70" as="geometry" />
        </mxCell>
        <mxCell id="beLWvpwt7th47SAGU2Cx-1" value="odbior" style="ellipse;whiteSpace=wrap;html=1;" vertex="1" parent="1">
          <mxGeometry x="860" y="270" width="120" height="80" as="geometry" />
        </mxCell>
        <mxCell id="beLWvpwt7th47SAGU2Cx-2" value="" style="endArrow=none;html=1;rounded=0;" edge="1" parent="1" source="Yvp6jD7t4m_mrtLre_dv-30" target="beLWvpwt7th47SAGU2Cx-1">
          <mxGeometry width="50" height="50" relative="1" as="geometry">
            <mxPoint x="810" y="380" as="sourcePoint" />
            <mxPoint x="860" y="330" as="targetPoint" />
          </mxGeometry>
        </mxCell>
        <mxCell id="beLWvpwt7th47SAGU2Cx-5" value="posiadanie" style="rhombus;whiteSpace=wrap;html=1;" vertex="1" parent="1">
          <mxGeometry x="490" y="370" width="80" height="80" as="geometry" />
        </mxCell>
        <mxCell id="beLWvpwt7th47SAGU2Cx-9" value="" style="endArrow=classic;html=1;rounded=0;" edge="1" parent="1" source="beLWvpwt7th47SAGU2Cx-5" target="Yvp6jD7t4m_mrtLre_dv-1">
          <mxGeometry width="50" height="50" relative="1" as="geometry">
            <mxPoint x="430" y="390" as="sourcePoint" />
            <mxPoint x="480" y="340" as="targetPoint" />
          </mxGeometry>
        </mxCell>
        <mxCell id="beLWvpwt7th47SAGU2Cx-10" value="" style="endArrow=none;html=1;rounded=0;" edge="1" parent="1" source="beLWvpwt7th47SAGU2Cx-5" target="Yvp6jD7t4m_mrtLre_dv-30">
          <mxGeometry width="50" height="50" relative="1" as="geometry">
            <mxPoint x="580" y="450" as="sourcePoint" />
            <mxPoint x="630" y="400" as="targetPoint" />
          </mxGeometry>
        </mxCell>
        <mxCell id="beLWvpwt7th47SAGU2Cx-11" value="zgłoszenia serwisowe" style="rhombus;whiteSpace=wrap;html=1;" vertex="1" parent="1">
          <mxGeometry x="1041" y="320" width="89" height="90" as="geometry" />
        </mxCell>
        <mxCell id="beLWvpwt7th47SAGU2Cx-13" value="" style="endArrow=classic;html=1;rounded=0;" edge="1" parent="1" source="beLWvpwt7th47SAGU2Cx-11" target="Yvp6jD7t4m_mrtLre_dv-30">
          <mxGeometry width="50" height="50" relative="1" as="geometry">
            <mxPoint x="880" y="410" as="sourcePoint" />
            <mxPoint x="930" y="360" as="targetPoint" />
          </mxGeometry>
        </mxCell>
        <mxCell id="beLWvpwt7th47SAGU2Cx-14" value="" style="endArrow=none;html=1;rounded=0;" edge="1" parent="1" source="beLWvpwt7th47SAGU2Cx-11" target="Yvp6jD7t4m_mrtLre_dv-10">
          <mxGeometry width="50" height="50" relative="1" as="geometry">
            <mxPoint x="1220" y="370" as="sourcePoint" />
            <mxPoint x="1270" y="320" as="targetPoint" />
          </mxGeometry>
        </mxCell>
        <mxCell id="beLWvpwt7th47SAGU2Cx-15" value="serwis" style="rhombus;whiteSpace=wrap;html=1;" vertex="1" parent="1">
          <mxGeometry x="1500" y="380" width="80" height="80" as="geometry" />
        </mxCell>
        <mxCell id="beLWvpwt7th47SAGU2Cx-16" value="" style="endArrow=classic;html=1;rounded=0;" edge="1" parent="1" source="beLWvpwt7th47SAGU2Cx-15" target="Yvp6jD7t4m_mrtLre_dv-10">
          <mxGeometry width="50" height="50" relative="1" as="geometry">
            <mxPoint x="1410" y="420" as="sourcePoint" />
            <mxPoint x="1460" y="370" as="targetPoint" />
          </mxGeometry>
        </mxCell>
        <mxCell id="beLWvpwt7th47SAGU2Cx-17" value="" style="endArrow=none;html=1;rounded=0;" edge="1" parent="1" source="beLWvpwt7th47SAGU2Cx-15" target="Yvp6jD7t4m_mrtLre_dv-40">
          <mxGeometry width="50" height="50" relative="1" as="geometry">
            <mxPoint x="1630" y="440" as="sourcePoint" />
            <mxPoint x="1680" y="390" as="targetPoint" />
          </mxGeometry>
        </mxCell>
        <mxCell id="beLWvpwt7th47SAGU2Cx-18" value="aktywność pracownika" style="rhombus;whiteSpace=wrap;html=1;" vertex="1" parent="1">
          <mxGeometry x="1186" y="490" width="110" height="100" as="geometry" />
        </mxCell>
        <mxCell id="beLWvpwt7th47SAGU2Cx-19" value="" style="endArrow=classic;html=1;rounded=0;" edge="1" parent="1" source="beLWvpwt7th47SAGU2Cx-18" target="Yvp6jD7t4m_mrtLre_dv-17">
          <mxGeometry width="50" height="50" relative="1" as="geometry">
            <mxPoint x="1100" y="510" as="sourcePoint" />
            <mxPoint x="1150" y="460" as="targetPoint" />
          </mxGeometry>
        </mxCell>
        <mxCell id="beLWvpwt7th47SAGU2Cx-20" value="" style="endArrow=none;html=1;rounded=0;" edge="1" parent="1" source="beLWvpwt7th47SAGU2Cx-18" target="Yvp6jD7t4m_mrtLre_dv-40">
          <mxGeometry width="50" height="50" relative="1" as="geometry">
            <mxPoint x="1340" y="580" as="sourcePoint" />
            <mxPoint x="1390" y="530" as="targetPoint" />
          </mxGeometry>
        </mxCell>
        <mxCell id="beLWvpwt7th47SAGU2Cx-21" value="przynależność do zespołu" style="rhombus;whiteSpace=wrap;html=1;" vertex="1" parent="1">
          <mxGeometry x="690" y="500" width="120" height="110" as="geometry" />
        </mxCell>
        <mxCell id="beLWvpwt7th47SAGU2Cx-22" value="" style="endArrow=classic;html=1;rounded=0;" edge="1" parent="1" source="beLWvpwt7th47SAGU2Cx-21" target="Yvp6jD7t4m_mrtLre_dv-54">
          <mxGeometry width="50" height="50" relative="1" as="geometry">
            <mxPoint x="660" y="670" as="sourcePoint" />
            <mxPoint x="710" y="620" as="targetPoint" />
          </mxGeometry>
        </mxCell>
        <mxCell id="beLWvpwt7th47SAGU2Cx-23" value="" style="endArrow=none;html=1;rounded=0;" edge="1" parent="1" source="beLWvpwt7th47SAGU2Cx-21" target="Yvp6jD7t4m_mrtLre_dv-17">
          <mxGeometry width="50" height="50" relative="1" as="geometry">
            <mxPoint x="830" y="500" as="sourcePoint" />
            <mxPoint x="880" y="450" as="targetPoint" />
          </mxGeometry>
        </mxCell>
        <mxCell id="beLWvpwt7th47SAGU2Cx-24" value="" style="edgeStyle=entityRelationEdgeStyle;fontSize=12;html=1;endArrow=ERoneToMany;rounded=0;exitX=0;exitY=0.25;exitDx=0;exitDy=0;entryX=0.994;entryY=0.34;entryDx=0;entryDy=0;entryPerimeter=0;" edge="1" parent="1" source="t0saiEG1jBcrnA9zouVA-40" target="t0saiEG1jBcrnA9zouVA-31">
          <mxGeometry width="100" height="100" relative="1" as="geometry">
            <mxPoint x="1990" y="980" as="sourcePoint" />
            <mxPoint x="2030" y="1250" as="targetPoint" />
            <Array as="points">
              <mxPoint x="1900" y="1090" />
            </Array>
          </mxGeometry>
        </mxCell>
        <mxCell id="beLWvpwt7th47SAGU2Cx-25" value="" style="edgeStyle=entityRelationEdgeStyle;fontSize=12;html=1;endArrow=ERoneToMany;rounded=0;exitX=0.008;exitY=0.173;exitDx=0;exitDy=0;exitPerimeter=0;entryX=1;entryY=0.5;entryDx=0;entryDy=0;" edge="1" parent="1" source="t0saiEG1jBcrnA9zouVA-31" target="t0saiEG1jBcrnA9zouVA-27">
          <mxGeometry width="100" height="100" relative="1" as="geometry">
            <mxPoint x="1560" y="980" as="sourcePoint" />
            <mxPoint x="1660" y="880" as="targetPoint" />
          </mxGeometry>
        </mxCell>
        <mxCell id="beLWvpwt7th47SAGU2Cx-26" value="" style="edgeStyle=entityRelationEdgeStyle;fontSize=12;html=1;endArrow=ERoneToMany;rounded=0;exitX=0.993;exitY=0.081;exitDx=0;exitDy=0;exitPerimeter=0;entryX=-0.002;entryY=0.303;entryDx=0;entryDy=0;entryPerimeter=0;" edge="1" parent="1" source="t0saiEG1jBcrnA9zouVA-23" target="t0saiEG1jBcrnA9zouVA-27">
          <mxGeometry width="100" height="100" relative="1" as="geometry">
            <mxPoint x="1190" y="1030" as="sourcePoint" />
            <mxPoint x="1290" y="930" as="targetPoint" />
          </mxGeometry>
        </mxCell>
        <mxCell id="beLWvpwt7th47SAGU2Cx-28" value="" style="edgeStyle=entityRelationEdgeStyle;fontSize=12;html=1;endArrow=ERoneToMany;rounded=0;exitX=0.989;exitY=0.133;exitDx=0;exitDy=0;exitPerimeter=0;entryX=0;entryY=0.25;entryDx=0;entryDy=0;" edge="1" parent="1" source="t0saiEG1jBcrnA9zouVA-19" target="t0saiEG1jBcrnA9zouVA-23">
          <mxGeometry width="100" height="100" relative="1" as="geometry">
            <mxPoint x="780" y="1010" as="sourcePoint" />
            <mxPoint x="880" y="910" as="targetPoint" />
          </mxGeometry>
        </mxCell>
        <mxCell id="beLWvpwt7th47SAGU2Cx-29" value="" style="edgeStyle=entityRelationEdgeStyle;fontSize=12;html=1;endArrow=ERoneToMany;rounded=0;exitX=0.998;exitY=0.158;exitDx=0;exitDy=0;exitPerimeter=0;entryX=0.004;entryY=0.367;entryDx=0;entryDy=0;entryPerimeter=0;" edge="1" parent="1" source="t0saiEG1jBcrnA9zouVA-17" target="t0saiEG1jBcrnA9zouVA-19">
          <mxGeometry width="100" height="100" relative="1" as="geometry">
            <mxPoint x="460" y="1010" as="sourcePoint" />
            <mxPoint x="560" y="910" as="targetPoint" />
          </mxGeometry>
        </mxCell>
      </root>
    </mxGraphModel>
  </diagram>
</mxfile>
